<svg width="478" height="451" viewBox="0 0 478 451" fill="none" xmlns="http://www.w3.org/2000/svg">
<g clip-path="url(#clip0_44_128)">
<path d="M347.03 255.924V380.51L367.828 414.472L369.411 417.055H451.474L453.132 255.924H347.03Z" fill="#E6E6E6"/>
<path opacity="0.1" d="M347.03 255.924V380.51L367.828 414.472L369.105 255.924H347.03Z" fill="black"/>
<path d="M148.918 252.602V377.188L128.12 411.15L126.537 413.733H44.4738L42.8157 252.602H148.918Z" fill="#E6E6E6"/>
<path opacity="0.1" d="M148.918 252.602V377.188L128.12 411.15L126.844 252.602H148.918Z" fill="black"/>
<path d="M478 250.11V257.585H32.0397V246.788L73.4857 225.193H441.528L478 250.11Z" fill="#E6E6E6"/>
<path opacity="0.1" d="M478 250.11V257.585H32.0397V246.788L478 250.11Z" fill="black"/>
<path d="M95.8671 287.486H75.9725L67.6833 281.672H104.985L95.8671 287.486Z" fill="#3F3D56"/>
<path d="M95.8671 311.572H75.9725L67.6833 305.759H104.985L95.8671 311.572Z" fill="#3F3D56"/>
<path d="M95.8671 345.626H75.9725L67.6833 339.812H104.985L95.8671 345.626Z" fill="#3F3D56"/>
<path d="M95.8671 379.679H75.9725L67.6833 373.865H104.985L95.8671 379.679Z" fill="#3F3D56"/>
<path d="M400.081 290.808H419.976L428.265 284.994H390.963L400.081 290.808Z" fill="#3F3D56"/>
<path d="M400.081 314.895H419.976L428.265 309.081H390.963L400.081 314.895Z" fill="#3F3D56"/>
<path d="M400.081 348.948H419.976L428.265 343.135H390.963L400.081 348.948Z" fill="#3F3D56"/>
<path d="M400.081 383.002H419.976L428.265 377.188H390.963L400.081 383.002Z" fill="#3F3D56"/>
<path d="M413.629 81.1216H246.148C245.316 81.1215 244.492 81.2856 243.724 81.6045C242.955 81.9234 242.257 82.3909 241.669 82.9802C241.08 83.5696 240.614 84.2692 240.296 85.0393C239.977 85.8093 239.814 86.6347 239.814 87.4681V200.512C239.814 201.346 239.977 202.171 240.296 202.941C240.614 203.711 241.08 204.411 241.669 205C242.257 205.59 242.955 206.057 243.724 206.376C244.492 206.695 245.316 206.859 246.148 206.859H309.725L307.343 222.097C307.343 222.097 293.731 229.343 303.302 229.556C312.873 229.769 357.963 229.556 357.963 229.556C357.963 229.556 366.684 229.556 352.859 221.884L350.618 206.859H413.629C414.461 206.859 415.284 206.695 416.053 206.376C416.821 206.057 417.52 205.59 418.108 205C418.696 204.411 419.163 203.711 419.481 202.941C419.799 202.171 419.963 201.346 419.963 200.512V87.4681C419.963 86.6347 419.799 85.8093 419.481 85.0393C419.163 84.2692 418.696 83.5696 418.108 82.9802C417.52 82.3909 416.821 81.9234 416.053 81.6045C415.284 81.2856 414.461 81.1215 413.629 81.1216Z" fill="#3F3D56"/>
<path d="M413.901 87.8347H245.875V182.031H413.901V87.8347Z" fill="#F2F2F2"/>
<path d="M329.888 85.9168C330.476 85.9168 330.952 85.4397 330.952 84.8512C330.952 84.2627 330.476 83.7856 329.888 83.7856C329.301 83.7856 328.825 84.2627 328.825 84.8512C328.825 85.4397 329.301 85.9168 329.888 85.9168Z" fill="#F2F2F2"/>
<path d="M329.888 202.277C332.12 202.277 333.929 200.464 333.929 198.228C333.929 195.992 332.12 194.179 329.888 194.179C327.656 194.179 325.847 195.992 325.847 198.228C325.847 200.464 327.656 202.277 329.888 202.277Z" fill="#F2F2F2"/>
<path d="M323.591 241.064V243.196H209.163V241.49L209.321 241.064L212.141 233.392H321.251L323.591 241.064Z" fill="#3F3D56"/>
<path d="M367.626 238.977C367.418 239.87 366.631 240.812 364.853 241.703C358.472 244.9 345.498 240.851 345.498 240.851C345.498 240.851 335.502 239.146 335.502 234.67C335.782 234.478 336.075 234.303 336.378 234.148C339.06 232.726 347.955 229.217 363.726 234.297C364.888 234.662 365.926 235.344 366.724 236.265C367.078 236.614 367.344 237.041 367.501 237.513C367.658 237.984 367.701 238.486 367.626 238.977Z" fill="#3F3D56"/>
<path opacity="0.1" d="M367.626 238.977C359.816 241.976 352.855 242.2 345.711 237.228C343.009 235.227 339.738 234.147 336.378 234.148C339.061 232.726 347.955 229.217 363.727 234.297C364.888 234.662 365.926 235.344 366.724 236.265C367.078 236.614 367.344 237.041 367.501 237.513C367.658 237.984 367.701 238.486 367.626 238.977Z" fill="black"/>
<path d="M357.834 237.228C359.361 237.228 360.599 236.846 360.599 236.375C360.599 235.905 359.361 235.523 357.834 235.523C356.307 235.523 355.069 235.905 355.069 236.375C355.069 236.846 356.307 237.228 357.834 237.228Z" fill="#F2F2F2"/>
<path opacity="0.1" d="M323.591 241.064V243.195H209.163V241.49L209.321 241.064H323.591Z" fill="black"/>
<path d="M63.6234 0.000157941C62.4621 -0.0953808 61.2992 0.164912 60.2889 0.746546C59.2968 1.42727 58.6715 2.61983 58.0333 3.72958C55.5931 8.02326 52.2895 11.7624 48.3318 14.71C45.4492 16.826 41.7843 19.4644 42.2775 23.3657C42.5377 24.6541 43.0127 25.8893 43.6826 27.0195C46.3419 32.3984 53.5987 36.5551 52.8849 42.6928C55.527 38.2609 51.993 36.0694 54.6351 31.6375C55.8933 29.5269 58.0791 27.1445 59.9787 28.4699C60.6148 28.9137 61.0325 29.7097 61.6948 30.0991C63.2751 31.0283 64.9563 29.2519 66.3551 27.9937C71.1788 23.6549 78.0385 24.7915 84.0411 26.1434C86.8749 26.7816 89.9875 27.619 91.6626 30.3328C93.8652 33.9009 89.5701 37.7545 88.4848 41.7885C88.3962 42.1323 88.3921 42.4924 88.4726 42.8381C88.5532 43.1838 88.7162 43.5048 88.9476 43.7737C89.1789 44.0426 89.4719 44.2513 89.8013 44.382C90.1307 44.5127 90.4869 44.5615 90.8392 44.5242C92.6403 44.3462 94.7739 44.2003 94.8805 43.4083C97.1466 43.4891 99.9232 43.232 100.894 40.8677C101.191 39.9323 101.348 38.958 101.36 37.9765C101.716 34.005 103.398 30.3818 104.513 26.6019C105.627 22.822 106.112 18.3922 104.231 15.0408C103.56 13.9258 102.73 12.9149 101.767 12.0402C91.0944 1.69144 77.0624 -0.0152035 63.6234 0.000157941Z" fill="#2F2E41"/>
<path d="M55.206 50.4451C55.206 50.4451 57.5271 69.826 49.0164 71.3765C40.5058 72.927 56.7534 99.285 56.7534 99.285L95.4382 103.936L86.1538 72.9269C86.1538 72.9269 79.9642 70.6012 83.8327 55.0965C87.7012 39.5918 55.206 50.4451 55.206 50.4451Z" fill="#FFB8B8"/>
<path d="M31.6082 383.409L34.7033 426.048H50.9503L46.3087 383.409H31.6082Z" fill="#FFB8B8"/>
<path d="M150.757 302.785L153.078 338.445L170.874 330.693L163.91 301.234L150.757 302.785Z" fill="#FFB8B8"/>
<path d="M20.0028 220.609C20.0028 220.609 20.7765 265.573 25.4187 280.303C30.0609 295.032 29.2872 295.807 28.5135 298.133C27.7398 300.459 26.9661 298.908 26.9661 302.785C26.9661 306.661 25.4187 367.904 26.9661 373.331C28.5135 378.758 22.3239 388.061 26.9661 388.836C31.6083 389.611 53.2717 388.836 54.0454 384.184C54.8191 379.533 47.8559 377.982 50.9507 374.882C54.0455 371.781 58.6876 308.211 58.6876 308.211L69.5194 264.023L89.6355 240.766H132.189L145.342 291.931C145.342 291.931 139.926 306.661 143.794 306.661C147.663 306.661 170.873 311.312 170.873 294.257C170.873 277.202 163.137 226.811 161.589 225.261C160.042 223.71 162.363 218.284 160.042 215.958C157.721 213.632 130.641 197.352 120.583 194.251C110.525 191.15 96.4155 187.46 96.4155 187.46L20.0028 220.609Z" fill="#2F2E41"/>
<path d="M170.873 324.491C170.873 324.491 159.268 320.615 153.852 332.244C148.436 343.872 150.757 346.973 150.757 346.973C150.757 346.973 168.552 353.175 171.647 350.074C172.994 348.725 177.269 348.256 181.67 348.157C188.373 348.007 190.157 338.505 183.826 336.292C183.637 336.226 183.446 336.168 183.253 336.12C177.063 334.569 170.873 324.491 170.873 324.491Z" fill="#2F2E41"/>
<path d="M72.6141 63.2366C85.4331 63.2366 95.825 52.824 95.825 39.9795C95.825 27.135 85.4331 16.7224 72.6141 16.7224C59.7951 16.7224 49.4032 27.135 49.4032 39.9795C49.4032 52.824 59.7951 63.2366 72.6141 63.2366Z" fill="#FFB8B8"/>
<path d="M42.44 81.067C42.44 81.067 80.3511 88.8194 89.6354 76.4156C98.9198 64.0118 102.788 111.301 102.788 111.301L107.43 160.916L100.467 188.05C100.467 188.05 64.1035 217.509 52.498 219.834C40.8926 222.16 23.0976 223.711 23.0976 223.711C23.0976 223.711 28.5135 137.659 28.5135 136.109C28.5135 134.558 42.44 81.067 42.44 81.067Z" fill="#6C63FF"/>
<path d="M53.9697 66.5277C53.9697 66.5277 45.5348 61.6861 43.2137 66.3375C40.8926 70.9889 19.2291 82.6174 16.908 82.6174C14.5869 82.6174 21.5502 146.962 18.4554 154.714C15.3606 162.467 0.660425 219.059 9.17108 223.71C17.6817 228.362 11.4922 219.059 20.0028 230.688C28.5135 242.316 70.293 242.316 72.6141 237.665C74.9352 233.013 54.0454 198.128 57.9139 165.568C61.7824 133.008 67.972 88.0441 62.5561 81.8422C57.1402 75.6403 53.9697 66.5277 53.9697 66.5277Z" fill="#2F2E41"/>
<path d="M81.8985 71.7642L82.9762 68.0481C82.9762 68.0481 115.167 78.7413 116.715 85.7185C118.262 92.6956 117.489 141.536 112.073 145.412C106.657 149.288 98.9198 155.49 104.336 164.793C109.752 174.095 115.941 184.174 120.583 184.949C125.225 185.724 133.736 191.151 131.415 196.577C129.094 202.004 101.241 191.926 101.241 191.926C101.241 191.926 82.6722 177.972 83.4459 156.265C84.2196 134.558 81.8985 71.7642 81.8985 71.7642Z" fill="#2F2E41"/>
<path d="M108.978 163.242L90.4091 198.128C90.4091 198.128 63.3298 226.036 78.8037 229.137C94.2777 232.238 102.788 203.554 102.788 203.554L122.904 174.871L108.978 163.242Z" fill="#FFB8B8"/>
<path d="M64.7541 6.08523C63.8185 6.01577 62.8814 6.19789 62.0396 6.61278C61.2785 7.16977 60.6512 7.89011 60.2035 8.72117C58.1399 11.8315 55.4498 14.4751 52.3061 16.482C49.9595 17.9776 46.9762 19.8424 47.3776 22.5998C47.5956 23.5243 47.9835 24.4001 48.5214 25.1823C50.6937 29.0225 51.5585 33.4671 50.9849 37.8437L57.4372 28.4463C58.4615 26.9546 60.2408 25.2707 61.7872 26.2075C62.305 26.5212 62.645 27.0838 63.1841 27.359C64.4706 28.0157 65.8391 26.7602 66.9779 25.8709C70.9045 22.8042 76.4886 23.6076 81.375 24.5631C83.6818 25.0142 86.2156 25.606 87.5792 27.5241C89.8454 30.7117 87.4791 35.3174 88.8017 38.9998C89.1719 38.7401 89.4863 38.4085 89.7263 38.0248C89.9663 37.641 90.1269 37.2129 90.1987 36.7658C92.0434 36.823 94.3036 36.6412 95.094 34.9701C95.3344 34.3152 95.4625 33.6243 95.4729 32.9266C95.763 30.1196 97.1324 27.5588 98.0396 24.8871C98.9468 22.2155 99.3413 19.0846 97.8103 16.7159C97.2502 15.9133 96.5743 15.1986 95.8046 14.5951C87.1166 7.28061 75.694 6.07438 64.7541 6.08523Z" fill="#2F2E41"/>
<path d="M108.978 82.6174L116.186 84.5347C116.186 84.5347 132.962 127.581 129.094 157.04C125.225 186.499 122.904 180.297 122.904 180.297C122.904 180.297 116.715 166.343 102.788 169.444L108.978 82.6174Z" fill="#2F2E41"/>
<path d="M32.6802 420.412C30.8144 422.953 31.1885 426.584 29.5358 429.269C28.1032 431.596 25.4034 432.816 23.6115 434.878C23.0398 435.563 22.5301 436.297 22.0884 437.073C20.4262 439.863 19.0751 443.438 20.7122 446.243C22.0291 448.499 24.7972 449.381 27.3359 449.982C30.5446 450.742 33.8785 451.35 37.1243 450.769C40.37 450.189 43.5422 448.197 44.6995 445.104C44.9269 444.326 45.1973 443.561 45.5094 442.813C47.2686 439.343 52.7867 439.306 54.5872 435.857C55.8472 433.443 54.6889 430.525 53.5312 428.061L49.9951 420.534C48.8216 418.036 44.0646 419.472 41.5847 418.874C38.3503 418.093 35.007 417.233 32.6802 420.412Z" fill="#2F2E41"/>
<path d="M6.84998 178.747L39.3452 229.137C39.3452 229.137 59.4613 254.72 65.6509 243.091C71.8404 231.463 43.9874 212.082 43.9874 212.082L23.0976 173.32L6.84998 178.747Z" fill="#FFB8B8"/>
<path d="M23.0976 84.1679L16.908 82.6174C16.908 82.6174 4.52889 86.4936 1.43411 102.774C-1.66067 119.054 0.660409 184.173 4.52889 184.949C8.39736 185.724 23.6353 173.61 26.0744 176.178C28.5135 178.747 20.7765 165.568 23.0976 158.591C25.4186 151.613 23.0976 84.1679 23.0976 84.1679Z" fill="#2F2E41"/>
<path d="M313.985 118.772H293.988V123.596H313.985V118.772Z" fill="#6C63FF"/>
<path d="M383.234 118.772H376.198V123.596H383.234V118.772Z" fill="#6C63FF"/>
<path d="M397.306 118.772H390.27V123.596H397.306V118.772Z" fill="#6C63FF"/>
<path d="M368.791 118.772H321.021V123.596H368.791V118.772Z" fill="#6C63FF"/>
<path d="M288.803 149.94H268.806V154.764H288.803V149.94Z" fill="#6C63FF"/>
<path d="M358.052 149.94H351.016V154.764H358.052V149.94Z" fill="#6C63FF"/>
<path d="M372.124 149.94H365.088V154.764H372.124V149.94Z" fill="#6C63FF"/>
<path d="M343.61 149.94H295.839V154.764H343.61V149.94Z" fill="#6C63FF"/>
<path d="M371.383 129.532H351.386V134.356H371.383V129.532Z" fill="#6C63FF"/>
<path d="M398.416 129.532H378.419V134.356H398.416V129.532Z" fill="#6C63FF"/>
<path d="M275.842 129.532H268.806V134.356H275.842V129.532Z" fill="#6C63FF"/>
<path d="M289.914 129.532H282.878V134.356H289.914V129.532Z" fill="#6C63FF"/>
<path d="M344.721 129.532H296.95V134.356H344.721V129.532Z" fill="#6C63FF"/>
<path d="M329.908 139.922H309.911V144.746H329.908V139.922Z" fill="#6C63FF"/>
<path d="M302.875 139.922H282.878V144.746H302.875V139.922Z" fill="#6C63FF"/>
<path d="M275.842 139.922H268.806V144.746H275.842V139.922Z" fill="#6C63FF"/>
<path d="M398.416 139.922H391.38V144.746H398.416V139.922Z" fill="#6C63FF"/>
<path d="M384.345 139.922H336.574V144.746H384.345V139.922Z" fill="#6C63FF"/>
</g>
<defs>
<clipPath id="clip0_44_128">
<rect width="478" height="451" fill="white"/>
</clipPath>
</defs>
</svg>
